<svg width="20" height="20" viewBox="0 0 20 20" fill="none" xmlns="http://www.w3.org/2000/svg">
<g id="icon/Close">
<path id="Vector" d="M11.1559 9.99895L17.0153 3.01458C17.1135 2.89851 17.0309 2.72217 16.8791 2.72217H15.0979C14.993 2.72217 14.8925 2.76904 14.8233 2.8494L9.99073 8.61056L5.15814 2.8494C5.09117 2.76904 4.99073 2.72217 4.88358 2.72217H3.10233C2.95055 2.72217 2.86796 2.89851 2.96617 3.01458L8.82555 9.99895L2.96617 16.9833C2.94417 17.0092 2.93006 17.0408 2.92551 17.0745C2.92095 17.1082 2.92615 17.1424 2.94049 17.1732C2.95483 17.204 2.9777 17.23 3.00638 17.2482C3.03507 17.2664 3.06837 17.2759 3.10233 17.2757H4.88358C4.9885 17.2757 5.08894 17.2289 5.15814 17.1485L9.99073 11.3873L14.8233 17.1485C14.8903 17.2289 14.9907 17.2757 15.0979 17.2757H16.8791C17.0309 17.2757 17.1135 17.0994 17.0153 16.9833L11.1559 9.99895Z" fill="black" fill-opacity="0.85"/>
</g>
</svg>
