<svg width="12" height="12" viewBox="0 0 12 12" fill="none" xmlns="http://www.w3.org/2000/svg">
<g id="icon/DeleteOutlined" clip-path="url(#clip0_1_10014)">
<path id="Vector" d="M3.96408 1.60592H3.85693C3.91586 1.60592 3.96408 1.5577 3.96408 1.49878V1.60592H8.03551V1.49878C8.03551 1.5577 8.08372 1.60592 8.14265 1.60592H8.03551V2.5702H8.99979V1.49878C8.99979 1.02601 8.61542 0.641632 8.14265 0.641632H3.85693C3.38417 0.641632 2.99979 1.02601 2.99979 1.49878V2.5702H3.96408V1.60592ZM10.7141 2.5702H1.28551C1.04845 2.5702 0.856934 2.76172 0.856934 2.99878V3.42735C0.856934 3.48628 0.905148 3.53449 0.964076 3.53449H1.77301L2.10381 10.539C2.12524 10.9957 2.50292 11.3559 2.95961 11.3559H9.03997C9.49801 11.3559 9.87435 10.997 9.89577 10.539L10.2266 3.53449H11.0355C11.0944 3.53449 11.1426 3.48628 11.1426 3.42735V2.99878C11.1426 2.76172 10.9511 2.5702 10.7141 2.5702ZM8.93685 10.3916H3.06274L2.73863 3.53449H9.26095L8.93685 10.3916Z" fill="black" fill-opacity="0.5"/>
</g>
<defs>
<clipPath id="clip0_1_10014">
<rect width="12" height="12" fill="white"/>
</clipPath>
</defs>
</svg>
