<svg width="12" height="12" viewBox="0 0 12 12" fill="none" xmlns="http://www.w3.org/2000/svg">
<g id="icon/Edit" clip-path="url(#clip0_1_10017)">
<path id="Vector" d="M2.59416 9.21306C2.62095 9.21306 2.64773 9.21038 2.67452 9.20636L4.9272 8.81128C4.95398 8.80592 4.97943 8.79387 4.99818 8.77378L10.6754 3.09654C10.6878 3.08415 10.6977 3.06944 10.7044 3.05323C10.7111 3.03703 10.7146 3.01966 10.7146 3.00212C10.7146 2.98458 10.7111 2.96721 10.7044 2.95101C10.6977 2.93481 10.6878 2.92009 10.6754 2.9077L8.44952 0.680471C8.42407 0.655025 8.39059 0.641632 8.35443 0.641632C8.31827 0.641632 8.28479 0.655025 8.25934 0.680471L2.58211 6.3577C2.56202 6.37779 2.54997 6.4019 2.54461 6.42869L2.14952 8.68137C2.13649 8.75311 2.14115 8.82695 2.16308 8.8965C2.18502 8.96604 2.22357 9.02919 2.27541 9.08047C2.3638 9.16619 2.47497 9.21306 2.59416 9.21306ZM3.49684 6.87735L8.35443 2.0211L9.33613 3.00279L4.47854 7.85904L3.28791 8.06931L3.49684 6.87735ZM10.9285 10.3381H1.07139C0.83434 10.3381 0.642822 10.5296 0.642822 10.7666V11.2488C0.642822 11.3077 0.691037 11.3559 0.749965 11.3559H11.25C11.3089 11.3559 11.3571 11.3077 11.3571 11.2488V10.7666C11.3571 10.5296 11.1656 10.3381 10.9285 10.3381Z" fill="black" fill-opacity="0.5"/>
</g>
<defs>
<clipPath id="clip0_1_10017">
<rect width="12" height="12" fill="white"/>
</clipPath>
</defs>
</svg>
